<?xml version="1.0"?>
<svg xmlns="http://www.w3.org/2000/svg" height="512px" viewBox="0 0 496 496" width="512px"><path d="m240 440h16v16h-16zm0 0" fill="#FFFFFF"/><path d="m424 352c-13.40625 0-26.558594 3.839844-37.878906 10.839844l-2.121094-2.351563v-80.488281c0-19.3125-13.769531-35.472656-32-39.191406v-69.746094l67.929688-75.476562c1.335937.230468 2.679687.414062 4.070312.414062 13.230469 0 24-10.769531 24-24s-10.769531-24-24-24-24 10.769531-24 24c0 1.105469.183594 2.152344.328125 3.214844l-28.601563 16.679687c-2.398437-6.328125-3.726562-13.054687-3.726562-19.894531 0-30.878906 25.128906-56 56-56s56 25.121094 56 56-25.128906 56-56 56v16c39.703125 0 72-32.304688 72-72s-32.296875-72-72-72-72 32.304688-72 72c0 9.679688 1.984375 19.230469 5.726562 28.0625l-47.886718 27.9375h-123.679688l-90.488281-52.785156c.144531-1.0625.328125-2.109375.328125-3.214844 0-13.230469-10.769531-24-24-24s-24 10.769531-24 24 10.769531 24 24 24c1.390625 0 2.734375-.183594 4.070312-.40625l22.9375 25.484375c-8.207031 4.546875-17.390624 6.921875-27.007812 6.921875-30.871094 0-56-25.121094-56-56s25.128906-56 56-56 56 25.121094 56 56h16c0-39.695312-32.296875-72-72-72s-72 32.304688-72 72 32.296875 72 72 72c13.40625 0 26.558594-3.839844 37.878906-10.839844l34.121094 37.910156v69.746094c-18.230469 3.71875-32 19.871094-32 39.191406v80.488282l-35.929688 39.929687c-1.335937-.242187-2.679687-.425781-4.070312-.425781-13.230469 0-24 10.769531-24 24s10.769531 24 24 24 24-10.769531 24-24c0-1.105469-.183594-2.152344-.328125-3.214844l28.601563-16.679687c2.398437 6.328125 3.726562 13.054687 3.726562 19.894531 0 30.878906-25.128906 56-56 56s-56-25.121094-56-56 25.128906-56 56-56v-16c-39.703125 0-72 32.304688-72 72s32.296875 72 72 72 72-32.304688 72-72c0-9.679688-1.984375-19.230469-5.726562-28.0625l47.886718-27.9375h37.839844v32h-32c-13.230469 0-24 10.769531-24 24v48c0 13.230469 10.769531 24 24 24h112c13.230469 0 24-10.769531 24-24v-48c0-13.230469-10.769531-24-24-24h-32v-32h37.839844l90.488281 52.785156c-.144531 1.0625-.328125 2.109375-.328125 3.214844 0 13.230469 10.769531 24 24 24s24-10.769531 24-24-10.769531-24-24-24c-1.390625 0-2.734375.183594-4.070312.40625l-22.9375-25.484375c8.207031-4.546875 17.390624-6.921875 27.007812-6.921875 30.871094 0 56 25.121094 56 56s-25.128906 56-56 56-56-25.121094-56-56h-16c0 39.695312 32.296875 72 72 72s72-32.304688 72-72-32.296875-72-72-72zm-83.265625-192.328125c-10.246094-1.414063-18.4375-9.230469-20.292969-19.328125l79.359375-46.289062zm0 176.65625 59.066406 65.625-79.359375-46.289063c1.855469-10.105468 10.046875-17.921874 20.292969-19.335937zm27.265625-56.328125v62.710938l-16-17.773438v-67.457031c9.289062 3.304687 16 12.105469 16 22.519531zm56-216c4.414062 0 8 3.59375 8 8s-3.585938 8-8 8-8-3.59375-8-8 3.585938-8 8-8zm-152 224h-48v-80h48zm-48 16h48v48h-48zm48-112h-48v-48h48zm-116.734375 144.328125c10.246094 1.414063 18.4375 9.230469 20.292969 19.328125l-79.359375 46.289062zm0-176.65625-59.066406-65.625 79.359375 46.289063c-1.855469 10.105468-10.046875 17.921874-20.292969 19.335937zm-91.265625-87.671875c0-4.40625 3.585938-8 8-8s8 3.59375 8 8-3.585938 8-8 8-8-3.59375-8-8zm64 208c0-10.414062 6.710938-19.214844 16-22.527344v67.457032l-16 17.773437zm-56 152c-4.414062 0-8-3.59375-8-8s3.585938-8 8-8 8 3.59375 8 8-3.585938 8-8 8zm88-111.191406v-145.617188c15.648438-3.183594 28.007812-15.542968 31.191406-31.191406h16.808594v208h-16.808594c-3.183594-15.648438-15.542968-28.007812-31.191406-31.191406zm120 127.191406c0 17.648438-14.351562 32-32 32s-32-14.351562-32-32 14.351562-32 32-32 32 14.351562 32 32zm-96 24v-48c0-4.40625 3.585938-8 8-8h20.320312c-7.632812 8.503906-12.320312 19.695312-12.320312 32s4.6875 23.496094 12.320312 32h-20.320312c-4.414062 0-8-3.59375-8-8zm128-48v48c0 4.40625-3.585938 8-8 8h-20.320312c7.632812-8.503906 12.320312-19.695312 12.320312-32s-4.6875-23.496094-12.320312-32h20.320312c4.414062 0 8 3.59375 8 8zm-56-24h-16v-32h16zm32-48v-208h16.808594c3.183594 15.648438 15.542968 28.007812 31.191406 31.191406v145.609375c-15.648438 3.183594-28.007812 15.542969-31.191406 31.191407h-16.808594zm144 72c0 4.40625-3.585938 8-8 8s-8-3.59375-8-8 3.585938-8 8-8 8 3.59375 8 8zm0 0" fill="#FFFFFF"/></svg>
