<?xml version="1.0" encoding="iso-8859-1"?>
<!-- Generator: Adobe Illustrator 19.0.0, SVG Export Plug-In . SVG Version: 6.00 Build 0)  -->
<svg xmlns="http://www.w3.org/2000/svg" xmlns:xlink="http://www.w3.org/1999/xlink" version="1.1" id="Capa_1" x="0px" y="0px" viewBox="0 0 512 512" style="enable-background:new 0 0 512 512;" xml:space="preserve" width="512px" height="512px">
<g>
	<g>
		<path d="M343.754,402.195h-0.003c-5.523,0-9.999,4.478-9.999,10c0,5.522,4.479,10,10.002,10s10-4.478,10-10    C353.754,406.673,349.277,402.195,343.754,402.195z" fill="#FFFFFF"/>
	</g>
</g>
<g>
	<g>
		<path d="M244.05,361.9c-1.86-1.859-4.44-2.92-7.07-2.92c-2.64,0-5.21,1.061-7.07,2.92c-1.87,1.86-2.93,4.44-2.93,7.08    c0,2.63,1.06,5.21,2.93,7.07c1.86,1.86,4.43,2.93,7.07,2.93c2.63,0,5.2-1.069,7.07-2.93c1.86-1.87,2.93-4.44,2.93-7.07    C246.98,366.34,245.91,363.77,244.05,361.9z" fill="#FFFFFF"/>
	</g>
</g>
<g>
	<g>
		<path d="M188.046,201.452c-25.144,0-45.6,20.456-45.6,45.6s20.456,45.6,45.6,45.6c25.144,0,45.6-20.456,45.6-45.6    C233.646,221.908,213.19,201.452,188.046,201.452z M188.046,272.652c-14.116,0-25.6-11.484-25.6-25.6    c0-14.116,11.484-25.6,25.6-25.6c14.116,0,25.6,11.485,25.6,25.6C213.646,261.168,202.162,272.652,188.046,272.652z" fill="#FFFFFF"/>
	</g>
</g>
<g>
	<g>
		<path d="M502,0h-42.146h-42.146c-5.523,0-10,4.477-10,10s4.477,10,10,10h32.146v27h-58.049V32.352    C391.805,14.513,377.292,0,359.453,0h-98.906c-17.839,0-32.352,14.513-32.352,32.352V47h-58.049V20h32.146c5.523,0,10-4.477,10-10    s-4.477-10-10-10h-42.146H118c-5.523,0-10,4.477-10,10s4.477,10,10,10h32.146v27h-11.073c-5.523,0-10,4.477-10,10s4.477,10,10,10    h91.685c2.943,6.921,8.233,12.606,14.861,16.07l-36.413,25.884c-2.639,1.875-4.206,4.913-4.206,8.15v32.565l-12.984-5.616    c-1.253-0.542-2.696-0.822-4.062-0.822c-1.366,0-2.717,0.28-3.97,0.822L45.093,204.128c-2.575,1.114-4.563,3.258-5.481,5.909    L0.549,322.964c-1.057,3.057-0.571,6.437,1.305,9.07c1.876,2.635,4.911,4.199,8.146,4.199h12.111V502c0,5.522,4.477,10,10,10    h311.594c5.521,0,9.998-4.475,10-9.995l0.023-51.999c0.002-5.523-4.473-10.002-9.996-10.005c-0.001,0-0.003,0-0.004,0    c-5.521,0-9.998,4.475-10,9.996L333.709,492h-51.757V334c0-5.522-4.477-10-10-10h-168c-5.523,0-10,4.478-10,10v158H42.111V326.233    c0-5.522-4.477-10-10-10h-8.07l33.034-95.497L188,164.107l130.926,56.629l33.034,95.497h-8.164c-5.521,0-9.998,4.475-10,9.996    l-0.019,45.767c-0.002,5.522,4.473,10.002,9.996,10.004c0.002,0,0.003,0,0.004,0c5.521,0,9.998-4.475,10-9.996l0.015-35.771H366    c3.234,0,6.269-1.564,8.146-4.199c1.876-2.634,2.362-6.014,1.305-9.07l-39.063-112.927c-0.917-2.651-2.906-4.795-5.481-5.909    L225,158.32v-36.055l32.827-23.335l6.377,16.238c1.503,3.827,5.196,6.344,9.308,6.344h72.976c4.112,0,7.805-2.517,9.308-6.344    l6.377-16.238L395,122.265V164c0,5.523,4.477,10,10,10s10-4.477,10-10v-46.896c0-3.238-1.567-6.275-4.206-8.15L374.381,83.07    c6.628-3.463,11.918-9.149,14.861-16.07h91.685c5.523,0,10-4.477,10-10s-4.477-10-10-10h-11.073V20H502c5.523,0,10-4.477,10-10    S507.523,0,502,0z M128.094,492l59.857-59.858L247.809,492H128.094z M261.951,344v133.856L202.094,418l15.953-15.953    c3.905-3.905,3.905-10.237,0-14.143c-3.905-3.904-10.237-3.904-14.143,0l-15.953,15.953L128.094,344H261.951z M113.952,358.143    L173.809,418l-59.857,59.858V358.143z M339.671,101.512h-59.343l-5.704-14.522l0.36-0.256h70.03l0.36,0.256L339.671,101.512z     M371.805,54.382c0,6.811-5.541,12.352-12.352,12.352h-98.906c-6.811,0-12.352-5.541-12.352-12.352v-22.03    c0-6.811,5.541-12.352,12.352-12.352h98.906c6.811,0,12.352,5.541,12.352,12.352V54.382z" fill="#FFFFFF"/>
	</g>
</g>
<g>
</g>
<g>
</g>
<g>
</g>
<g>
</g>
<g>
</g>
<g>
</g>
<g>
</g>
<g>
</g>
<g>
</g>
<g>
</g>
<g>
</g>
<g>
</g>
<g>
</g>
<g>
</g>
<g>
</g>
</svg>
